<?xml version="1.0" encoding="UTF-8"?>
<svg version="1.1" xmlns="http://www.w3.org/2000/svg" width="277" height="217">
<path d="M0 0 C0.91749023 0.00749268 1.83498047 0.01498535 2.78027344 0.02270508 C17.11128444 0.24780608 32.38273005 2.43726814 45.29296875 9.0703125 C49.70266124 10.57508892 52.10213599 9.5495607 56.125 7.6875 C61.96310095 5.24816087 67.71528557 3.27649524 73.875 1.8125 C74.57286621 1.63710693 75.27073242 1.46171387 75.98974609 1.28100586 C80.20847538 0.30976925 83.56151633 0.10034202 87.75 1.25 C89.75 3.25 89.75 3.25 90.06640625 6.05126953 C89.70319214 9.72320728 88.77202946 11.41456454 86.6875 14.4296875 C86.05585938 15.3578125 85.42421875 16.2859375 84.7734375 17.2421875 C84.10570312 18.19351563 83.43796875 19.14484375 82.75 20.125 C82.08226562 21.09953125 81.41453125 22.0740625 80.7265625 23.078125 C79.07989087 25.4775608 77.42091936 27.86741628 75.75 30.25 C77.24487536 33.38506827 79.0302398 36.042355 81.12646484 38.81640625 C95.12573112 57.4612391 102.41187773 80.26130617 100.28515625 103.6796875 C98.12988485 118.05865145 91.07175684 130.14370165 79.75 139.25 C65.15555274 148.43845674 51.15318057 149.78587336 34.21484375 148.69335938 C27.64070325 148.48162623 23.67575756 148.56289386 18.6875 153.1171875 C18.04167969 153.82858887 17.39585938 154.53999023 16.73046875 155.27294922 C11.5270364 160.46740128 3.2907426 162.00152684 -3.8125 162.5 C-7.25 162.25 -7.25 162.25 -9.6875 161.125 C-11.25 159.25 -11.25 159.25 -11.60546875 156.6328125 C-11.06295244 151.46996502 -8.49300119 147.60526419 -5.91796875 143.171875 C-3.57731207 138.91840594 -3.57731207 138.91840594 -3.80859375 134.15625 C-4.28425781 133.1971875 -4.75992188 132.238125 -5.25 131.25 C-5.75917969 130.1878125 -6.26835938 129.125625 -6.79296875 128.03125 C-7.89089583 125.84061164 -8.99508933 123.65310295 -10.10546875 121.46875 C-11.4042257 117.81627311 -11.41659067 115.92396879 -10.25 112.25 C-5.24809967 108.91539978 0.02247204 110.18119676 5.75 111.25 C13.58133899 114.03157213 21.88244603 118.51489207 25.75 126.25 C28.95932655 126.16852902 32.16683439 126.05574254 35.375 125.9375 C36.27863281 125.91494141 37.18226563 125.89238281 38.11328125 125.86914062 C44.50051086 125.612719 48.85105454 124.50473536 54 120.5 C57.14159525 116.46080611 58.01937418 112.21817557 57.625 107.1875 C56.71379113 101.77261511 54.14885202 98.40016721 49.9375 94.9375 C46.44568513 93.08889213 43.64151393 92.71513954 39.75 92.25 C39.79640625 93.44238281 39.8428125 94.63476562 39.890625 95.86328125 C39.92814311 97.42966247 39.96454323 98.99607076 40 100.5625 C40.03351563 101.34818359 40.06703125 102.13386719 40.1015625 102.94335938 C40.19945204 108.69437007 40.19945204 108.69437007 38.046875 111.35546875 C35.06482943 112.51684364 33.76555756 112.30087612 30.75 111.25 C28.234375 109.7890625 28.234375 109.7890625 25.5 107.875 C24.48083496 107.19107178 23.46166992 106.50714355 22.41162109 105.80249023 C19.92633443 104.11254904 17.59181639 102.32244355 15.27294922 100.41186523 C2.81335749 90.6597626 -8.5675237 90.97110744 -23.875 91.6875 C-27.25502677 91.79540401 -30.63500836 91.88727579 -34.01571655 91.97096252 C-36.10092641 92.0278726 -38.18577295 92.10141418 -40.26968384 92.19444275 C-47.19250244 92.45547044 -52.66922878 92.49414888 -58.125 87.75 C-61.58543954 83.67889466 -61.53933144 80.92610728 -61.45703125 75.71875 C-61.17841183 72.39634482 -60.46663713 70.75265482 -58.25 68.25 C-52.25 63.25 -52.25 63.25 -49.25 63.25 C-49.48976563 62.34121094 -49.72953125 61.43242188 -49.9765625 60.49609375 C-52.94788702 47.90026156 -52.95408945 35.82174515 -46.25 24.25 C-45.82847656 23.50363281 -45.40695313 22.75726563 -44.97265625 21.98828125 C-38.69988485 11.7537595 -29.73771825 4.67684745 -18.03564453 1.68359375 C-11.98102342 0.34576562 -6.18865457 -0.0675693 0 0 Z M-12.25 43.25 C-12.75299316 47.35777749 -12.57749345 48.75875983 -10.25 52.25 C-7.08087902 53.14562115 -5.07297146 53.53915213 -1.9375 52.4375 C-0.09902178 51.34312675 -0.09902178 51.34312675 0.75 49.25 C1.14366259 45.6283042 1.20225485 43.88650683 -0.9375 40.875 C-3.13575314 39.09807743 -3.13575314 39.09807743 -5.75 38.75 C-9.12013879 39.42402776 -10.26677007 40.4587875 -12.25 43.25 Z " fill="#1E3050" transform="translate(109.25,34.75)"/>
</svg>
