<?xml version="1.0" encoding="UTF-8"?>
<svg version="1.1" xmlns="http://www.w3.org/2000/svg" width="920" height="960">
<path d="M0 0 C2.61010368 -0.00302255 5.22020648 -0.00691256 7.83030772 -0.01159257 C13.49337391 -0.0203259 19.15640393 -0.02167692 24.81947517 -0.01808929 C33.24105528 -0.01276828 41.66260055 -0.01889165 50.08417688 -0.02717223 C66.00244521 -0.04239432 81.92069761 -0.04411913 97.8389717 -0.0416492 C110.13352246 -0.03981488 122.428068 -0.04157906 134.7226181 -0.04587364 C136.49043023 -0.04647605 138.25824236 -0.04707725 140.02605449 -0.04767724 C142.69014888 -0.04858452 145.35424327 -0.04949319 148.01833767 -0.0504096 C172.78079657 -0.05883651 197.54325352 -0.06317664 222.30571365 -0.05900288 C223.23877728 -0.0588465 224.1718409 -0.05869012 225.13317918 -0.05852901 C229.86205877 -0.05772326 234.59093835 -0.05687748 239.31981793 -0.05601571 C240.25894797 -0.05584462 241.198078 -0.05567353 242.16566652 -0.05549726 C244.06481463 -0.0551506 245.96396273 -0.05480207 247.86311084 -0.05445167 C277.41035962 -0.04909511 306.95757856 -0.05702412 336.50482178 -0.07548523 C369.72032101 -0.09621408 402.93580176 -0.10692624 436.15130782 -0.10290974 C439.69488382 -0.10251441 443.23845982 -0.10215286 446.78203583 -0.10181236 C448.09076117 -0.10167627 448.09076117 -0.10167627 449.4259254 -0.10153742 C462.58091698 -0.10037281 475.73588986 -0.10700939 488.89087677 -0.11762428 C503.85712618 -0.12968857 518.82333445 -0.1312211 533.78958449 -0.11883412 C542.15779768 -0.11221751 550.52591245 -0.11380883 558.89411771 -0.12742263 C565.15311517 -0.13666881 571.41200487 -0.13012068 577.67099449 -0.11757483 C580.19511771 -0.11492751 582.71925248 -0.11729551 585.24336436 -0.1253107 C615.11648996 -0.21355391 642.80798398 4.60229105 664.809021 26.39350891 C680.62566795 43.12177817 690.69953613 65.51090339 690.65417957 88.67741108 C690.6565318 89.50233324 690.65888403 90.3272554 690.66130754 91.17717519 C690.66796449 93.9413825 690.66754032 96.70554245 690.66712952 99.46975708 C690.67043021 101.4717485 690.67415621 103.47373926 690.678271 105.47572917 C690.68827588 110.97773012 690.69200536 116.47972016 690.69466031 121.98172891 C690.69856787 127.91588896 690.70814592 133.8500404 690.71687317 139.78419495 C690.73569169 153.43856534 690.74589202 167.09293727 690.75433385 180.74731707 C690.75854433 187.49981438 690.76376582 194.25231079 690.76901838 201.00480735 C690.78690771 224.13445037 690.80190167 247.26409366 690.80933857 270.39374256 C690.80981332 271.84520995 690.81028921 273.29667734 690.81076623 274.74814473 C690.8111208 275.82780555 690.8111208 275.82780555 690.81148252 276.92927769 C690.81268368 280.57580204 690.81389914 284.22232637 690.81512451 287.86885071 C690.81536466 288.59250523 690.81560481 289.31615976 690.81585224 290.06174321 C690.82374024 313.50955128 690.84716219 336.95730869 690.87968046 360.40509465 C690.91402376 385.21431381 690.93369392 410.02350336 690.93698281 434.83274668 C690.93740032 437.55944392 690.93787988 440.28614114 690.93840599 443.01283836 C690.93852918 443.68419353 690.93865237 444.3555487 690.9387793 445.04724796 C690.94096203 455.15855534 690.95423024 465.26980954 690.97344398 475.38109779 C690.99518171 486.89374076 691.00318626 498.40629117 690.9934772 509.91895232 C690.98894141 515.7885006 690.99077696 521.65785805 691.01023865 527.52737999 C691.02793443 532.91103132 691.02682063 538.2943535 691.01134136 543.67800864 C691.008975 545.61552675 691.01323772 547.55306804 691.02517001 549.49055085 C691.19354787 578.66039979 682.70970971 601.7898053 661.99261475 622.82710266 C644.62253611 639.53400649 621.04882462 647.47789831 597.18656921 647.38095093 C596.39892089 647.38180535 595.61127257 647.38265978 594.79975611 647.38354009 C592.18815577 647.38517344 589.57662117 647.37970904 586.96502686 647.3742218 C585.08194989 647.37393944 583.1988728 647.37409862 581.3157959 647.37466431 C576.22350633 647.37495037 571.13124048 647.36908454 566.0389564 647.36209035 C560.70983549 647.35582497 555.38071399 647.35525049 550.05158997 647.35406494 C539.96895858 647.350961 529.88633808 647.34276027 519.80371147 647.33271545 C508.32125595 647.32152518 496.83879991 647.31603652 485.35634029 647.31102002 C461.74420561 647.30057686 438.13208584 647.28224305 414.5199585 647.26069641 C414.5199585 667.39069641 414.5199585 687.52069641 414.5199585 708.26069641 C333.0099585 708.26069641 251.4999585 708.26069641 167.5199585 708.26069641 C167.5199585 688.13069641 167.5199585 668.00069641 167.5199585 647.26069641 C161.83350098 647.27640686 156.14704346 647.29211731 150.28826904 647.30830383 C131.45701883 647.3581117 112.62576594 647.39134332 93.79446697 647.41613293 C82.38204766 647.43155775 70.96969106 647.4525628 59.55731201 647.48701477 C49.60251899 647.51705205 39.64777142 647.53630322 29.69293433 647.5429619 C24.42898255 647.54685003 19.1651607 647.55589476 13.90125084 647.57788658 C8.93134628 647.59847889 3.96162332 647.60448502 -1.00831985 647.60001945 C-2.81770126 647.60083461 -4.62708971 647.6066632 -6.43643379 647.61831284 C-30.55329226 647.76577565 -51.29337077 643.84682085 -71.4800415 630.26069641 C-72.59121338 629.56202454 -73.70238525 628.86335266 -74.847229 628.14350891 C-75.71605713 627.52218079 -76.58488525 626.90085266 -77.4800415 626.26069641 C-77.4800415 625.60069641 -77.4800415 624.94069641 -77.4800415 624.26069641 C-78.07172119 623.99257141 -78.66340088 623.72444641 -79.27301025 623.44819641 C-92.83833776 616.14932993 -101.29544244 596.57404708 -105.8550415 582.57319641 C-109.36723784 569.55381755 -109.76983968 556.96190135 -109.74073792 543.58239746 C-109.74376254 541.60267519 -109.74765357 539.62295409 -109.75233048 537.64323503 C-109.76257911 532.23072066 -109.76043667 526.81827276 -109.75614989 521.40575302 C-109.75367696 515.55762453 -109.76270385 509.70951182 -109.77018738 503.86138916 C-109.78292062 492.41494863 -109.78472979 480.96853157 -109.78238712 469.52208515 C-109.78060228 460.21570276 -109.78232024 450.90932681 -109.78661156 441.60294533 C-109.78721397 440.26376103 -109.78781517 438.92457672 -109.78841516 437.58539242 C-109.78932246 435.5671289 -109.79023113 433.54886539 -109.79114751 431.53060187 C-109.79957156 412.77683346 -109.80391652 394.02306764 -109.79974079 375.2692976 C-109.79958442 374.56298638 -109.79942804 373.85667516 -109.79926692 373.12896056 C-109.7984612 369.54946505 -109.79761542 365.96996954 -109.79675362 362.39047404 C-109.79658253 361.67963258 -109.79641145 360.96879111 -109.79623517 360.236409 C-109.79588852 358.79891665 -109.79553999 357.36142431 -109.79518959 355.92393196 C-109.78983319 333.55985282 -109.79776274 311.19581312 -109.81622314 288.83174133 C-109.83696145 263.67889457 -109.84766239 238.52607224 -109.84364766 213.37321645 C-109.84325234 210.6887759 -109.84289079 208.00433535 -109.84255028 205.31989479 C-109.84245955 204.65896583 -109.84236881 203.99803688 -109.84227533 203.31707977 C-109.84111175 193.36106679 -109.84777591 183.40507869 -109.8583622 173.44907188 C-109.87028702 162.11987788 -109.87166848 150.79074192 -109.85957203 139.4615471 C-109.85369117 133.68540182 -109.85256208 127.90936265 -109.86457443 122.13322449 C-109.8754593 116.83754458 -109.8722989 111.54205904 -109.85831275 106.24638811 C-109.855673 104.33869854 -109.85800945 102.43099361 -109.86604861 100.52331915 C-109.98010804 71.41898354 -102.39472955 46.32894648 -81.7300415 25.01069641 C-75.95578533 19.24944951 -69.64803981 15.17310983 -62.4800415 11.26069641 C-61.47263916 10.66708313 -61.47263916 10.66708313 -60.44488525 10.06147766 C-56.1261972 7.66009727 -51.47851214 6.15707229 -46.7925415 4.63569641 C-46.16952148 4.42920471 -45.54650146 4.22271301 -44.90460205 4.00996399 C-30.19924178 -0.55312914 -15.22509843 -0.02495345 0 0 Z M-40.4800415 72.26069641 C-44.08329308 77.70951587 -46.59067058 82.67834309 -46.62150002 89.28559399 C-46.6275909 90.08255603 -46.63368179 90.87951808 -46.63995725 91.70063049 C-46.64161773 92.57132916 -46.64327821 93.44202784 -46.64498901 94.33911133 C-46.65063486 95.27005432 -46.6562807 96.20099732 -46.66209763 97.16015071 C-46.67986266 100.29611843 -46.69054356 103.4320702 -46.70123291 106.56806946 C-46.71242396 108.82270058 -46.72401937 111.07732973 -46.73598766 113.33195686 C-46.76740668 119.51108132 -46.79242817 125.69021717 -46.81613183 131.86937547 C-46.83690212 137.10892836 -46.86104879 142.34846362 -46.88513738 147.58800215 C-46.963217 164.57519343 -47.02774792 181.56242658 -47.08907366 198.54968548 C-47.10492482 202.9316616 -47.12124911 207.31363588 -47.13763046 211.69561005 C-47.40706161 283.95464602 -47.66751809 356.21542955 -47.32568097 428.47459656 C-47.29819924 434.4230129 -47.2804484 440.37140748 -47.26672363 446.31987 C-47.24987288 453.43319193 -47.2185717 460.54626271 -47.16710192 467.6594221 C-47.14166514 471.191131 -47.12166338 474.72259471 -47.11855125 478.25440025 C-47.11156447 482.00543967 -47.08009485 485.75547032 -47.04180908 489.50630188 C-47.04527155 490.57938945 -47.04873402 491.65247702 -47.05230141 492.75808239 C-46.9082373 502.11727607 -44.2863588 509.60563061 -37.4800415 516.26069641 C-28.73059964 522.29479425 -20.20148972 523.56233324 -9.80679417 523.51237869 C-8.22173994 523.51673901 -8.22173994 523.51673901 -6.60466442 523.52118742 C-3.05806573 523.52849563 0.48836041 523.52154008 4.03495789 523.5146637 C6.60107482 523.5169678 9.1671911 523.52014398 11.73330599 523.52411819 C17.31554439 523.53133744 22.8977441 523.53112495 28.47998428 523.52602386 C36.7810222 523.51845894 45.08202748 523.52232638 53.38306518 523.52844048 C68.20898054 523.5389739 83.03487867 523.53805837 97.86079568 523.53228265 C110.8357783 523.52725279 123.8107546 523.52593756 136.78573799 523.52832794 C137.64618965 523.52848071 138.50664131 523.52863348 139.39316726 523.52879088 C142.8859768 523.52941355 146.37878635 523.53005035 149.87159589 523.53071041 C182.64216404 523.53682947 215.4127212 523.5312799 248.18328765 523.52051662 C277.29999306 523.51102614 306.41668097 523.51187383 335.53338623 523.5214386 C368.24226909 523.53214746 400.95114224 523.53639467 433.66002661 523.53021407 C437.14680548 523.52957263 440.63358436 523.52894695 444.12036324 523.52832794 C444.97890402 523.52816979 445.83744481 523.52801163 446.72200199 523.52784869 C459.68835268 523.52557349 472.65469635 523.52823478 485.62104607 523.53328705 C500.36475879 523.5390032 515.10845158 523.53758099 529.85216182 523.52672556 C538.10425627 523.52085021 546.35630756 523.52047364 554.6084009 523.52801791 C560.76695137 523.53302737 566.92545085 523.52759927 573.08399505 523.51806876 C575.57784234 523.51583055 578.0716954 523.51698041 580.56553899 523.52182034 C583.9507321 523.5278873 587.33568929 523.52167819 590.72087002 523.51237869 C591.69284298 523.51706102 592.66481594 523.52174336 593.66624263 523.52656758 C603.93810026 523.47003454 612.60259373 521.87014401 620.246521 514.62397766 C626.77750487 507.46563327 628.64173379 499.85029688 628.65138626 490.28588581 C628.65343889 489.59256772 628.65549153 488.89924962 628.65760636 488.18492189 C628.66327102 485.85642787 628.66181977 483.5279931 628.66040039 481.19949341 C628.66298433 479.51526102 628.66599757 477.83102924 628.66940379 476.14679831 C628.67747363 471.51415443 628.67926335 466.88152605 628.68000126 462.24887598 C628.68185184 457.25417501 628.68939919 452.25948208 628.69613647 447.26478577 C628.70972015 436.34120616 628.71574455 425.41763023 628.72014713 414.49404359 C628.72290946 407.67377981 628.7271468 400.85351745 628.73165131 394.03325462 C628.74384395 375.15124634 628.75414332 356.26923919 628.7575264 337.38722706 C628.75785575 335.57438439 628.75785575 335.57438439 628.75819175 333.72491864 C628.75841003 332.51346001 628.7586283 331.30200138 628.7588532 330.05383188 C628.75929666 327.59894232 628.75974323 325.14405276 628.76019287 322.68916321 C628.76052502 320.86259696 628.76052502 320.86259696 628.76086387 318.99913039 C628.76481203 299.26711485 628.78226662 279.53513623 628.80555239 259.80313496 C628.82926462 239.54632461 628.84172819 219.2895328 628.84289432 199.03270835 C628.84381114 187.65855281 628.84956538 176.2844454 628.86771393 164.91030312 C628.88311314 155.22508425 628.88823641 145.53992837 628.87997583 135.85469959 C628.87606873 130.91375338 628.87700193 125.97293401 628.89103317 121.0320034 C628.90376826 116.50608781 628.90257797 111.98039444 628.89044246 107.45447918 C628.88848479 105.81986991 628.89156712 104.18524491 628.90028682 102.55065773 C628.96144638 90.30757021 628.38787808 79.5637242 619.5199585 70.26069641 C612.32221049 63.88971676 605.28986602 62.96481029 595.93663311 63.00342751 C594.86535424 62.99992143 593.79407538 62.99641536 592.69033352 62.99280304 C589.08211431 62.98346104 585.47405551 62.98841964 581.86582947 62.99327087 C579.2601902 62.98953604 576.65455205 62.98493518 574.04891568 62.97954023 C568.37413174 62.96923111 562.69938192 62.96639801 557.02458954 62.96845245 C548.5858963 62.97150006 540.14724087 62.96318382 531.70855497 62.9527032 C515.76073808 62.93335013 499.81293403 62.9277345 483.86510678 62.92658909 C471.55077343 62.92567042 459.23644513 62.9215559 446.92211342 62.91518784 C443.37895324 62.91339278 439.83579306 62.91161315 436.29263288 62.90983808 C434.97141808 62.90917494 434.97141808 62.90917494 433.62351208 62.90849839 C408.84426757 62.89618812 384.0650248 62.88829746 359.28577709 62.88918495 C357.88411016 62.88923169 357.88411016 62.88923169 356.45412672 62.88927937 C351.7178442 62.88944559 346.98156168 62.88964367 342.24527916 62.88984878 C340.83428457 62.88990862 340.83428457 62.88990862 339.39478505 62.88996966 C337.4925349 62.89005054 335.59028474 62.89013413 333.68803459 62.89022045 C304.08828841 62.89144611 274.48858805 62.87643063 244.88885498 62.84907532 C211.64308518 62.81836318 178.39734549 62.80114229 145.1515606 62.80300176 C141.60745736 62.80315103 138.06335412 62.80324844 134.51925087 62.80331039 C133.64658558 62.8033337 132.77392028 62.80335701 131.87481058 62.80338103 C117.82340266 62.80344261 103.77203446 62.7906638 89.72063835 62.77344587 C75.60210223 62.7565033 61.48362431 62.75450475 47.36508366 62.76766451 C38.97519842 62.77506277 30.58548986 62.77136964 22.1956233 62.75177983 C15.93440769 62.73839426 9.67338118 62.74586679 3.4121745 62.76152627 C0.87654314 62.76461193 -1.65910724 62.76090536 -4.19471619 62.74980612 C-7.63652426 62.73573523 -11.07741619 62.74623315 -14.5191927 62.76291847 C-16.00207486 62.74801393 -16.00207486 62.74801393 -17.51491424 62.73280829 C-26.62230231 62.82639928 -34.02967339 65.66372902 -40.4800415 72.26069641 Z M575.5199585 564.26069641 C569.1246249 571.46912865 567.93305184 578.85626033 568.0824585 588.36225891 C568.98397335 596.39540017 572.5773743 602.8328254 578.4574585 608.32319641 C586.29161826 614.46792859 594.26374825 615.77132206 604.027771 614.88569641 C611.43075614 613.56077737 618.24177007 610.38867521 623.0824585 604.51069641 C628.14811571 596.66565205 629.75846305 587.87637492 628.0512085 578.75679016 C625.57560766 569.10489405 620.34789519 563.11484055 612.1137085 557.67085266 C599.56985751 550.85107825 585.36032403 554.65792521 575.5199585 564.26069641 Z " fill="#FAFAFA" transform="translate(169.48004150390625,39.73930358886719)"/>
<path d="M0 0 C7.15440187 5.10121554 13.36345798 11.45752597 19.390625 17.8203125 C24.64145235 23.10993907 30.86681633 26.56067759 38.37890625 27.01953125 C51.5240829 26.22491781 61.18768432 15.54846738 69.765625 6.6328125 C75.93850581 0.37246172 81.90897607 -3.18438673 90.765625 -3.4296875 C101.27481968 -3.30374509 109.07739579 1.70403409 116.5625 8.671875 C146.20891483 39.38556076 153.86200188 91.89019594 162.640625 131.8828125 C163.73375 132.07875 164.826875 132.2746875 165.953125 132.4765625 C193.13666317 137.62367066 237.72697141 149.51177528 254.640625 173.8828125 C254.91609744 177.60169048 254.53707129 179.77292661 252.1640625 182.7109375 C210.22462782 222.40669872 98.67388881 213.31136663 44.08176804 213.20066833 C41.27449153 213.19520818 38.46722351 213.19285478 35.65994263 213.1907959 C6.23236061 213.1572152 -23.03280061 212.51236363 -52.359375 209.8828125 C-53.61334076 209.77389679 -53.61334076 209.77389679 -54.89263916 209.66278076 C-157.18615804 200.77386104 -157.18615804 200.77386104 -176.359375 179.8828125 C-177.234375 178.0078125 -177.234375 178.0078125 -177.359375 175.8828125 C-167.00317181 156.10601327 -133.79351744 145.24940942 -113.80664062 138.64111328 C-104.49370336 135.75544058 -94.98351346 133.43623051 -85.359375 131.8828125 C-81.86419969 121.03782037 -78.74488593 110.12727556 -75.79580688 99.12237549 C-53.24346958 15.27576724 -53.24346958 15.27576724 -25.359375 -1.1171875 C-16.8591864 -4.51949396 -8.04637863 -4.54231052 0 0 Z " fill="#FBFBFB" transform="translate(421.359375,166.1171875)"/>
<path d="M0 0 C1.6937975 -0.0037397 3.38759327 -0.00834249 5.08138633 -0.01373065 C9.72202094 -0.02593647 14.36258334 -0.02570303 19.00323033 -0.02334189 C24.0136038 -0.02293312 29.0239543 -0.03397865 34.03431702 -0.04345703 C43.84531802 -0.06005456 53.65629498 -0.06556601 63.46730885 -0.06668179 C71.44372197 -0.06763282 79.42012717 -0.07174586 87.39653778 -0.07808304 C110.02123902 -0.09569177 132.6459213 -0.10492244 155.27062944 -0.10342209 C157.09935616 -0.10330222 157.09935616 -0.10330222 158.96502686 -0.10317993 C160.18566998 -0.10309817 161.4063131 -0.10301641 162.66394541 -0.10293217 C182.44542783 -0.10211929 202.2268341 -0.12125833 222.00829449 -0.14945666 C242.32966062 -0.17819561 262.65098962 -0.19199641 282.97237659 -0.19026911 C294.37732074 -0.18960558 305.78218507 -0.19508192 317.1871109 -0.21662521 C326.89741725 -0.23485023 336.60760757 -0.23917342 346.31792364 -0.22560637 C351.26942947 -0.21908354 356.22071277 -0.21893485 361.17219734 -0.23631287 C365.71112506 -0.25207873 370.24965443 -0.24914417 374.78857264 -0.2317446 C376.42446129 -0.22868245 378.06037992 -0.23227732 379.69623318 -0.24346475 C395.29950004 -0.34304749 408.62922593 2.61495297 420.61688232 13.22836304 C434.48003425 27.54386349 435.40203857 42.87456879 435.40203857 62.26742554 C272.71203857 62.26742554 110.02203857 62.26742554 -57.59796143 62.26742554 C-57.59796143 31.46742554 -57.59796143 31.46742554 -47.59796143 18.26742554 C-46.93796143 17.27742554 -46.27796143 16.28742554 -45.59796143 15.26742554 C-44.93796143 15.26742554 -44.27796143 15.26742554 -43.59796143 15.26742554 C-43.59796143 14.60742554 -43.59796143 13.94742554 -43.59796143 13.26742554 C-30.00944325 1.96222394 -17.20712313 -0.03603305 0 0 Z " fill="#F8F8F8" transform="translate(271.59796142578125,777.7325744628906)"/>
<path d="M0 0 C9.81680505 0.60587864 19.55630402 1.56292449 29.32617188 2.67098999 C41.37032729 4.03034702 53.41065662 5.30051256 65.5 6.1875 C66.95152466 6.2946936 66.95152466 6.2946936 68.43237305 6.40405273 C71.62059226 6.62462136 74.80945519 6.81597229 78 7 C79.04344574 7.06355179 79.04344574 7.06355179 80.10797119 7.12838745 C96.35956123 8.10019227 112.59809745 8.20184934 128.875 8.1875 C129.5554475 8.18723312 130.235895 8.18696625 130.93696213 8.18669128 C173.5581086 8.16576569 216.04224063 5.79470324 258.34033203 0.3671875 C261.92171088 0.00785503 265.40346002 -0.06504319 269 0 C268.48967999 8.54915754 267.52689078 16.84715964 265.875 25.25 C265.54786011 26.91893311 265.54786011 26.91893311 265.21411133 28.62158203 C253.1263452 88.24111673 253.1263452 88.24111673 233 104 C232.45472656 104.43054688 231.90945313 104.86109375 231.34765625 105.3046875 C223.84479371 110.06580377 213.6837765 108.74604457 205.296875 107.41015625 C189.81852482 103.77508916 175.83207348 95.95364394 162.66894531 87.25 C151.21964611 79.70168046 140.98613111 74.73609279 127 76 C117.49823086 78.07526939 109.05494975 84.80325822 101 90 C84.86396682 100.37379643 68.93198886 108.19797966 49.5 108.5 C48.77079346 108.51853027 48.04158691 108.53706055 47.2902832 108.55615234 C38.99795802 108.459388 32.9380127 104.62900219 27 99 C19.08914161 89.12146618 14.75888111 77.95566701 11 66 C10.76829102 65.26749023 10.53658203 64.53498047 10.29785156 63.78027344 C4.01073631 43.33099254 0.54049811 21.36435333 0 0 Z M39 35 C38.20842782 45.09254533 41.4316149 54.95126524 47.3515625 63.125 C51.23281697 67.53969703 55.73307006 70.71326226 61.71484375 71.23828125 C74.55777901 71.53405794 85.45803152 68.06676315 94.921875 59.19921875 C97.21443192 56.78039392 97.21443192 56.78039392 99 54 C99.0251403 51.89705503 99.0251403 51.89705503 98 50 C87.51214786 41.8670591 70.51829003 39.76607179 57.875 37.1875 C56.80822021 36.96835937 55.74144043 36.74921875 54.64233398 36.5234375 C49.334226 35.48254972 44.4096744 34.73181501 39 35 Z M197.5625 37.625 C196.32999512 37.89425293 195.09749023 38.16350586 193.82763672 38.44091797 C186.66388689 40.05147492 179.59965379 41.8242526 172.625 44.125 C171.92576416 44.35396973 171.22652832 44.58293945 170.50610352 44.81884766 C166.14781425 46.34535781 162.71096209 48.32305212 159 51 C159.42334893 55.79795455 161.51670256 58.83627114 165 62 C175.0508876 69.34213775 185.56083509 72.43161745 198 71 C206.00954602 68.60486244 212.07541759 62.23754158 216 55 C218.55268537 48.4359519 220.65893206 42.08351962 220 35 C212.19850524 34.65030653 205.16650205 35.94381153 197.5625 37.625 Z " fill="#F6F6F6" transform="translate(327,394)"/>
</svg>
